<?xml version="1.0" encoding="UTF-8"?>
<svg width="128px" height="31px" viewBox="0 0 128 31" version="1.1" xmlns="http://www.w3.org/2000/svg" xmlns:xlink="http://www.w3.org/1999/xlink">
    <title>logo-dark</title>
    <g id="Page-1" stroke="none" stroke-width="1" fill="none" fill-rule="evenodd">
        <g id="logo-dark" transform="translate(-0.000107, 0.526855)">
            <g id="logo-chevron" transform="translate(113.705107, 7.374515)">
                <polygon id="Path" fill="#FF6800" points="0 0 6.38683 11.0617 0 22.1235 7.79905 22.1235 14.1859 11.0617 7.79905 0"></polygon>
                <polygon id="Path" fill="#FF8E40" points="0 0 6.38683 11.0617 14.1859 11.0617 7.79905 0"></polygon>
            </g>
            <g id="logo-text" fill="#FFFFFF">
                <path d="M98.9563068,15.8024 C99.4725068,13.6954 101.578407,12.0293 103.960907,12.0293 C106.342907,12.0293 108.446207,13.6954 108.962907,15.8024 L98.9563068,15.8024 Z M115.555207,18.6527 C115.555207,12.0209 110.621107,6.47427 103.871407,6.47427 C98.4606068,6.47427 94.2429368,10.2769 92.6626968,15.2568 L92.6626968,2.10805 C92.6626968,0.884938 91.7603768,5.55111512e-16 90.5356868,5.55111512e-16 L86.3417068,5.55111512e-16 L86.3417068,29.4979 L90.5356868,29.4979 C91.7603768,29.4979 92.6626968,28.2664 92.6626968,27.0433 L92.6626968,21.3233 C94.2429368,26.3016 98.5991068,30.12 103.988807,30.12 C108.953507,30.12 112.895107,26.8642 114.800907,22.6502 L108.049607,22.6502 C106.977607,23.7037 105.826707,24.714 104.037807,24.714 C101.458307,24.714 99.2744068,23.177 98.8778068,20.5432 L115.395107,20.5432 C115.514607,20.0165 115.555207,19.2474 115.555207,18.6527 Z" id="Shape"></path>
                <path d="M71.945,23.8285 C68.6501,23.8285 66.4267,21.3654 66.4267,18.1507 C66.4267,14.9343 68.8477,12.6309 72.024,12.6309 C75.2019,12.6309 77.5849,14.9738 77.5849,18.1507 C77.5849,21.4065 75.2419,23.8285 71.945,23.8285 Z M23.4593,15.8024 C23.975,13.6954 26.0799,12.0293 28.4629,12.0293 C30.8459,12.0293 32.9481,13.6954 33.4654,15.8024 L23.4593,15.8024 Z M77.3868,2.10858 L77.3868,9.09695 C75.2798,7.26914 73.3761,6.4748 70.8346,6.4748 C65.251,6.4748 61.2899,10.2474 60.189,15.2536 C60.1621,12.741 59.6707,10.0767 57.629,8.38268 C56.1999,7.19065 53.848,6.4748 51.9822,6.4748 C49.3216,6.4748 47.3653,7.37449 45.9752,9.48148 L45.7819,9.48148 L45.7819,9.45567 C45.7819,8.23098 44.8943,7.37449 43.6707,7.37449 L39.9876,7.37449 L39.9876,15.6497 C38.4074,10.3922 34.294,6.4748 28.5466,6.4748 C22.0745,6.4748 16.9302,11.9172 16.9302,18.3093 C16.9302,18.55 16.9092,18.7876 16.9234,19.0251 C14.1564,15.282 6.88408,16.0221 6.88408,13.2261 C6.88408,12.2337 7.86963,11.8929 8.74351,11.8929 C9.89498,11.8929 10.7599,12.1152 10.7999,13.6955 L17.2732,13.6955 C16.8359,8.95473 13.2225,6.4748 8.81409,6.4748 C4.56639,6.4748 0.277597,9.20494 0.277597,13.8108 C0.277597,16.9076 2.8987,18.5816 5.5198,19.534 C6.47164,19.8911 7.42558,20.1919 8.379,20.51 C9.56892,20.9852 11.3572,21.4545 11.3572,23.0426 C11.3572,24.1952 10.0451,24.7135 9.05323,24.7135 C7.74216,24.7135 6.75081,24.2305 6.55118,22.6502 L-1.48713236e-15,22.6502 C0.516214,27.9177 4.3678,30.12 8.9737,30.12 C13.2693,30.12 17.5608,27.6775 17.9205,23.1238 C19.7636,27.1544 23.8317,30.12 28.5429,30.12 C33.5049,30.12 37.3971,26.8642 39.3028,22.6502 L32.5515,22.6502 C31.4801,23.7037 30.3286,24.714 28.5429,24.714 C25.9603,24.714 23.7774,23.177 23.3792,20.5432 L39.9876,20.5432 L39.9876,29.4979 L46.3086,29.4979 L46.3086,17.2768 C46.3086,14.6552 47.0961,12.6704 50.1549,12.6704 C53.1326,12.6704 53.6831,14.7753 53.6831,17.2368 L53.6831,27.0438 C53.6831,28.2669 54.5607,29.4979 55.7843,29.4979 L60.0041,29.4979 L60.0041,21.1795 C61.0576,26.2442 65.1199,30.12 70.7998,30.12 C73.3361,30.12 75.9783,29.5153 77.3868,26.9975 L77.3868,27.1745 C77.3868,28.3275 78.5451,29.4979 79.7693,29.4979 L83.7078,29.4979 L83.7078,5.55111512e-16 L79.4517,5.55111512e-16 C78.2291,5.55111512e-16 77.3868,0.884938 77.3868,2.10858 Z" id="Shape"></path>
            </g>
        </g>
    </g>
</svg>