<svg width="128" height="31" viewBox="0 0 128 31" version="1.1" xmlns="http://www.w3.org/2000/svg" xmlns:xlink="http://www.w3.org/1999/xlink">
        <g id="Canvas" fill="none">
          <g id="Group 3">
            <g id="logo-chevron">
              <path fill-rule="evenodd" clip-rule="evenodd" d="M 0 0L 6.38683 11.0617L 0 22.1235L 7.79905 22.1235L 14.1859 11.0617L 7.79905 0L 0 0Z" transform="translate(113.705 7.90137)" fill="#FF6800"></path>
              <path fill-rule="evenodd" clip-rule="evenodd" d="M 0 0L 6.38683 11.0617L 14.1859 11.0617L 7.79905 0L 0 0Z" transform="translate(113.705 7.90137)" fill="#FF8E40"></path>
            </g>
            <g id="logo-text">
              <path fill-rule="evenodd" clip-rule="evenodd" d="M 12.6146 15.8024C 13.1308 13.6954 15.2367 12.0293 17.6192 12.0293C 20.0012 12.0293 22.1045 13.6954 22.6212 15.8024L 12.6146 15.8024ZM 29.2135 18.6527C 29.2135 12.0209 24.2794 6.47427 17.5297 6.47427C 12.1189 6.47427 7.90123 10.2769 6.32099 15.2568L 6.32099 2.10805C 6.32099 0.884938 5.41867 0 4.19398 0L 0 0L 0 29.4979L 4.19398 29.4979C 5.41867 29.4979 6.32099 28.2664 6.32099 27.0433L 6.32099 21.3233C 7.90123 26.3016 12.2574 30.12 17.6471 30.12C 22.6118 30.12 26.5534 26.8642 28.4592 22.6502L 21.7079 22.6502C 20.6359 23.7037 19.485 24.714 17.6961 24.714C 15.1166 24.714 12.9327 23.177 12.5361 20.5432L 29.0534 20.5432C 29.1729 20.0165 29.2135 19.2474 29.2135 18.6527Z" transform="translate(86.3416 0.526855)" fill="currentColor"></path>
              <path fill-rule="evenodd" clip-rule="evenodd" d="M 71.945 23.8285C 68.6501 23.8285 66.4267 21.3654 66.4267 18.1507C 66.4267 14.9343 68.8477 12.6309 72.024 12.6309C 75.2019 12.6309 77.5849 14.9738 77.5849 18.1507C 77.5849 21.4065 75.2419 23.8285 71.945 23.8285ZM 23.4593 15.8024C 23.975 13.6954 26.0799 12.0293 28.4629 12.0293C 30.8459 12.0293 32.9481 13.6954 33.4654 15.8024L 23.4593 15.8024ZM 77.3868 2.10858L 77.3868 9.09695C 75.2798 7.26914 73.3761 6.4748 70.8346 6.4748C 65.251 6.4748 61.2899 10.2474 60.189 15.2536C 60.1621 12.741 59.6707 10.0767 57.629 8.38268C 56.1999 7.19065 53.848 6.4748 51.9822 6.4748C 49.3216 6.4748 47.3653 7.37449 45.9752 9.48148L 45.7819 9.48148L 45.7819 9.45567C 45.7819 8.23098 44.8943 7.37449 43.6707 7.37449L 39.9876 7.37449L 39.9876 15.6497C 38.4074 10.3922 34.294 6.4748 28.5466 6.4748C 22.0745 6.4748 16.9302 11.9172 16.9302 18.3093C 16.9302 18.55 16.9092 18.7876 16.9234 19.0251C 14.1564 15.282 6.88408 16.0221 6.88408 13.2261C 6.88408 12.2337 7.86963 11.8929 8.74351 11.8929C 9.89498 11.8929 10.7599 12.1152 10.7999 13.6955L 17.2732 13.6955C 16.8359 8.95473 13.2225 6.4748 8.81409 6.4748C 4.56639 6.4748 0.277597 9.20494 0.277597 13.8108C 0.277597 16.9076 2.8987 18.5816 5.5198 19.534C 6.47164 19.8911 7.42558 20.1919 8.379 20.51C 9.56892 20.9852 11.3572 21.4545 11.3572 23.0426C 11.3572 24.1952 10.0451 24.7135 9.05323 24.7135C 7.74216 24.7135 6.75081 24.2305 6.55118 22.6502L 0 22.6502C 0.516214 27.9177 4.3678 30.12 8.9737 30.12C 13.2693 30.12 17.5608 27.6775 17.9205 23.1238C 19.7636 27.1544 23.8317 30.12 28.5429 30.12C 33.5049 30.12 37.3971 26.8642 39.3028 22.6502L 32.5515 22.6502C 31.4801 23.7037 30.3286 24.714 28.5429 24.714C 25.9603 24.714 23.7774 23.177 23.3792 20.5432L 39.9876 20.5432L 39.9876 29.4979L 46.3086 29.4979L 46.3086 17.2768C 46.3086 14.6552 47.0961 12.6704 50.1549 12.6704C 53.1326 12.6704 53.6831 14.7753 53.6831 17.2368L 53.6831 27.0438C 53.6831 28.2669 54.5607 29.4979 55.7843 29.4979L 60.0041 29.4979L 60.0041 21.1795C 61.0576 26.2442 65.1199 30.12 70.7998 30.12C 73.3361 30.12 75.9783 29.5153 77.3868 26.9975L 77.3868 27.1745C 77.3868 28.3275 78.5451 29.4979 79.7693 29.4979L 83.7078 29.4979L 83.7078 0L 79.4517 0C 78.2291 0 77.3868 0.884938 77.3868 2.10858Z" transform="translate(-0.000106812 0.526855)" fill="currentColor"></path>
            </g>
          </g>
        </g>
      </svg>
